<svg xmlns="http://www.w3.org/2000/svg" viewBox="0 0 226 98"><g class="a"><path d="M216.3 72.9l-2.8 2-.1-6.4 2.9 4.4zm2.4.6l3.2-2.3-1.6 4.9-1.6-2.6zm-1.1-1.6l-3-4.7 7 1.8-4 2.9zm-.3 2.6l2.2 3.5-4.3 6.2-1.6-7 3.7-2.7zm-36.8-49.4l-2.2 2.3.2-1.2 2-1.1zm-4.3 4.2l-2.2-.6 2.6-1.4-.4 2zM173.5 64l1.5 1.1v.1l.6 1.7-2.1-2.9zm.1 21l-.9-1.4 6.4-8.9 3.2 5-8.7 5.3zm-4.8 5.1l4.3-2.6 4 6.4-8.3-3.8zm1.2-6.2l-3.4 4.8-6.2-7.1 9.6 2.3zm.1 3.2l1.5-2.1.5.9-2 1.2zM168.8 61l9 12.1-6.7 9.3-12.5-3-3.2-12 13.4-6.4zm-15.4-16.9l.1-3.6 1.1 1.7-1.2 1.9zm.3-6.2l.9-.4.1 1.8-1-1.4zm2.9-14.8l8.7-12.8 5.2 17.3-13.9-4.5zm10.1-13.8l12.3 4-7.1 13.3-5.2-17.3zm6.2 20.9l2.8.7-1.3 10.5-1.5-11.2zm.4 19.7l-4.5 8.6-15.4-11.3 2.6-4 17.3 6.7zm-6.9-17.6l-10 8.1-.1-3.6 10.1-4.5zm-9.1 9.6L171 30.6l2.4 17.6-16.1-6.3zm-1.4-17.2v-.1l13.5 4.5-13.2 5.9-.3-10.3zm14.4 35l3.5-6.7 1 9.9-4.5-3.2zm8-40.9l-1.3 6.3-3 1.7 4.3-8zm3.2-14.9l5.3 2.8-2.6 2.1-2.7-4.9zm1.7 8l.6-.5.2.5h-.8zm-2.7-6.3l2.3 4.1-1.8 1.4-.5-5.5zm4.1 15.3v.1l-5.7 3.1 1.9-9 3.8 5.8zm-1.7-7.3l1.7-.1.1 1.3-1.8-1.2zm1.9 4.6l-1.5-2.3 1.5.9v1.4zm7-10.9l-1.6-.8 2.6-2.1-1 2.9zm-1.1 11.5l1.4-1.1 1.1 2.8-2.5-1.7zm.5 2.3l-3-.5 1.1-.8 1.9 1.3zm-.9-7.9l1.2 2.9-2.3 1.7-2.8-1.9-.1-2.5 4-.2zm1.8-1.8l.6-1.7 3 1.6-3.6.1zm3.9 1.5l-3.1 2.2-.8-2 3.9-.2zm-7.3-5.3l2.5 1.3-.9 2.6-4.4.3-.8-1.4 3.6-2.8zm-5.3-4.5h8.2l-3.3 2.5-4.9-2.5zm4.4 15.7l-1.2.8-.1-1.6 1.3.8zm12.7-8.8l-1.3.8-1.7-4.3 3 3.5zm6.3 9.3l-4.9 9.7-1-7.6 5.9-2.1zm-7.5 2.7l.8 6.4-3.6-5.4 2.8-1zm-4-.9l-1.7-4.4 4.5-3.2.5 3.7-3.3 3.9zm7-12l-4.3-5 8.3 2.8-4 2.2zm4.3 8.5l-5.9 2.1-.3-2 2.1-2.5 4.1 2.4zm-6.1-5.6l1.2-.7.9 1.2-.4.5-1.7-1zm3.1 1.9l.2-.1.3.4-.5-.3zm-.3-3.4l2-1.1-1.5 1.7-.5-.6zm-2.2 3.8l-1 1.2-.3-1.9 1.3.7zm-2.2 5.1l.1.9-1.2.5 1.1-1.4zm9.3.8l2.6 10.9h-8.1l5.5-10.9zm-3.2-7.9l2.9-3.4-.2 6.5-2.7-3.1zm6.3 6.6l7.4.6-2.2 3.6-5.2-4.2zm4.1 5.8l-3.2 5.1-2.3-9.6 5.5 4.5zm-2 6.3l3.3-5.2 5.4 4.4-8.7.8zm4.4-6.8l2-3.2 2.3 6.7-4.3-3.5zm-8.4-7.2l.2-7.9 8.1 8.6-8.3-.7zm-16.1-8.9l1.4-4 2.4 6-3.8-2zm-25-.1l10.3-4.6.8 8.3L168.3 8zm-14.5 28l.7-3.4.1 3.1-.8.3zm13.7 23.7l-12.3 6-1.7-16.3 14 10.3zm24.1 16.1l-7.7 3.3-3-4.7 10.7 1.4zm-2.2 2.7l5.2-2.1.2 1.6-5.4.5zm6.9-2.2l3.9 1.1-3.7.4-.2-1.5zm-10.8 4.6l9.6-1 2.1 13.1-11.7-12.1zm10.9 13.7l-15.8.4 3.4-13.2 12.4 12.8zm-14.2-12.5l-3.1 11.8-4.5-7.3 7.6-4.5zm16.3-9.7l2.6-3.7.6 1.9-3.2 1.8zm6.4 6.4l8.3 7.4-14.1 7.8-2.3-14.3 8.1-.9zm.4-2.9l-1.5-4.5 6.4-3.6-4.9 8.1zm-7.9-1l4.9-2.7 1.5 4.4-6.4-1.7zm5.8-5.2l-.7-2.2 5.6-.5-4.9 2.7zm3.9 8.8l4.9-.7 1.5 6.4-6.4-5.7zm-.3-1.9l4.9-8.1.1 7.4-5 .7zm-20.6-54.2l8.2 1.5 6.2 8.9c.1.2.4.5.9.5h10.2l12.8-1.2c.3-.1.6-.3.8-.5.1-.3.2-.6.1-1l-4.2-12.1c0-.2-.1-.3-.2-.4L209.6 5.9c-.1-.1-.3-.2-.4-.3L195 .9c-.1-.1-.1-.1-.3-.1h-.5v.1H179l-14 6.2c-.1.1-.3.2-.4.4l-10.5 15.4c-.1.1-.2.3-.2.4l-2.5 14.2v.1l-.2 10 1.9 19.6v.1l.1.1 3.3 13c.1.1.2.2.3.4l9 10.2c.1.1.2.2.4.3l12.7 5.4.2.1h.1c1.1 0 16.8-.4 18.9-.4.1 0 .3.1.5.1h.1l16.7-9.1c.1 0 .2-.1.3-.3l5.8-8.2c.1-.1.1-.2.2-.3l3.3-9.7c.1-.3.1-.6-.1-.9-.1-.3-.4-.5-.7-.5l-11.4-3c-.1 0-.2-.1-.3-.1h-.1l-11.2 1.1c-.4 0-.7.2-.8.5l-5.7 8-14.9-1.9-2.7-7.5-1.4-15.1 2.1-18.6 8.4-8.5zm-57.6 68.4l-1.8.9 2.9-3.3-1.1 2.4zm15.1-23.4l1.3-.4-.5 2.4-.8-2zm-.3-1.7l-.1-3.9 2.1 3.4-2 .5zm-5 8.5l3.8-5.5 1.6 3.9-2.2 5-3.2-3.4zm.2 7.7l-3.9 5-1-2.9 4.9-2.1zm-6 3.9l.8 2.5-2.4 1.3 1.6-3.8zm-15.1-10.9l11.2 3.9 2.8 4.4-8.5 10-7.7-9.4 2.2-8.9zm-5.3 15.6l7.1 3.5-7.8.8.7-4.3zm-2.7.8l.9-.6-.4 2.1-.5-1.5zm-5-5.4l-4.4 7-.2-7.1 4.6.1zm-8.9-1.8l5.2-4.7-2.6 4.7h-2.6zm2.5 7.8L95 85.7l2.9.1.2 6.1zm-4.6-4.8l4.1 8.3-7.8-.1 3.7-8.2zm-1.6-1.2l-3.5 7.8-2.8-7.1 6.3-.7zM79 80.6l-2.6 5-.2-2.4 2.8-2.6zM77.6 42l-1 4.1-.5-4.6 1.5.5zm3-20.6L77 18.7l1.7-3.1 1.9 5.8zm-2.8-8.1l-.7 1.4.1-2.6.6 1.2zm3.7-7.5l-.2-.1L78 2.6h7.5l.1 5.4-4.1-2.2zm-1.2 2.1l.6-.2.8.4-1.4-.2zm5.4 2.4l-6.3 2-1.5-3.1 7.8 1.1zM77 3.9l2.3 2.3-2 .6-.3-2.9zM87.5 5l2.2 3.6-2.1.1-.1-3.7zm7.1 2.6L99 3.3l.1 3-4.5 1.3zm-1.5 2.1L99.4 8l2.1 8.5-8.4-6.8zM114.4 7l-6.5 2.4.5-5.8 6 3.4zm2.2-.9l-5.5-3.2 5.3-.4 3.7 1.2-3.5 2.4zm3.7-.5l1.8-1.3 2.2.7-4 .6zm1.6 14.4l-3.3-9.4 9.8-4.3 6 10.8-12.5 2.9zm17.2-4.3l-2.9 1-3.8-6.9 6.7 5.9zm-3.6 21.6l8.8-8.7.8 10.8-9.6-2.1zm5.7 6.1l3.4-1.3-1.6 3.1-1.8-1.8zm2.6 6.8v-.3l.3.6-.3-.3zm.4-3.6l1-2v4.3l-1-2.3zm-3.9 32.5l-5.7 2.5 2.8-5.6 2.9 3.1zm-20.9 12.8l-6.6-3.2 1.6-3 5 6.2zM107 84.6l-1.5-7.9 3.9 1.6.9 8.7-3.3-2.4zm2.8 4.4l-.9.5-.6-1.6 1.5 1.1zm-3.9-1.8l1.3 3.3-5.2 3.1 3.9-6.4zm-5.5-3l3.4-6.2 1.2 6.2h-4.6zm1.4-7.9l-4.6 4.1 2.4-4.1h2.2zM84.1 76l5.5-3.8 2.3 10.3-7.8-6.5zm-.2 11.8l3.1 7.5h-9.4l6.3-7.5zm-.7-2.5l-5.6 2.2 4.5-8.7 1.1 6.5zM77 53.1l9.1 4-7.4 9.5-2.3-.4.6-13.1zm21.9-32.7l-4.4-7.5 7 5.7-2.6 1.8zm.5 5.6l.1-3.9 1.6-1.2-1.7 5.1zM82.9 69.5l-.9 4.2-3.4-4.1.8-1 3.5.9zm-2.2-2.4l4.7-5.9-2.1 6.7-2.6-.8zm7.4 3.8l-4.2 2.9.7-3.9 3.5 1zm-3.7-24.8l-7.1 3.7 1.9-6.9 5.2 3.2zm4.8-8.9l-9.7 3.1-.7-5 10.4 1.9zm2.7-11.5L83 23.2l-3.1-9.3 11-3.6 6.6 11.1-5.6 4.3zm-1.2 12.8l-4.5 6.4-5.4-3.2 9.9-3.2zM90.3 27l-5.9 4.9-.9-6.8 6.8 1.9zm1.5 8.6l-6.3-2.3 5.9-5 .4 7.3zm4.6 16.9l-8.1 3-.9-7.8 9 4.8zm.5-8.8l-8.7 1.4 4.6-6.7 4.1 5.3zm-3-6.7l3.5-3v7.6L93.9 37zM89 46.6l8.4-1.3.1 5.9-8.5-4.6zm4.1-18L97 32l-3.5 3.1-.4-6.5zm4.5 31.2L90 56.7l7.6-2.8v5.9zm-4.2-33.1l4.3-3.3-.2 6.8-4.1-3.5zM79 33.1l2.8-6 .8 5.8-3.6.2zm6.7 14.5l.9 7.6-8.4-3.7 7.5-3.9zm11.4 13.8l-7.2 8.3-4.9-1.4 3.2-10.5 8.9 3.6zm-5.7 22.9l-6.5.7-1.1-7.1 7.6 6.4zm6.7-10.4l-6.6-3.5 6.2-7.2.4 10.7zm4.7.4l-3 .1-.2-6.1-.1-2.1 3.3 8.1zm15.3-65.2l-.4-1.2 4.5-.6-4.1 1.8zm.6 16.4l2.3 1.1.2 1.9-2.5-3zM128 28l-5.2-2.7-.4-3.6 11.2-2.5L128 28zm11.2-3.4l-8.6 3 5.2-8.2 3.4 5.2zm-.6 19.8l.7-.2.7.6-1.4-.4zm.8 2l3 .8-.2 1.7-2.8-2.5zm-1.1 1.6l3.7 3.2-.4 4-3.3-7.2zm-9.5 14.2l7.2 11.9-6.5 3-6.6-9 5.9-5.9zm-10.4 11.2l3.4-4 5.2 7-8.6-3zm-6.4 1.9c.1 0 .2-.1.4-.1v-.1l.8-.1-3 1.8-2.5-1 4.3-.5zm4.8-3l-.6.7-.6.1 1.2-.8zm5.8-24.7l-.5 6.2-.3 2.1-1.1 11.5-9.2 6-6.7.8-5.4-13.3-.1-28.7 4.2-12.3 11.2 3.6 6.8 8.5 1.1 15.6zm9.1-6.4l1.6-1.6.9 3-2.5-1.4zm-2.1 18.5l-3-7.2 8.9-6.5 5.4 11.8-11.3 1.9zm-5.9-1.9l3.9 3-4.6 4.6.7-7.6zm2.8-24.9l-2-1 2.5-1.1-.5 2.1zm3.4 7.3l-2.6-1.5.6-3.1 4.4 2.4-2.4 2.2zm-3.5 5.8l3.8-3.6 3.3 1.9-7.1 1.7zm5.2.5l-5.7 4.2-1.1-2.5 6.8-1.7zm-7.2-12.8l1.7.9-.3 1.8-1.4-2.7zm4.3 7.9l-3.3 3.1 1.3-4.2 2 1.1zm-3.4-2.3l-1.2 3.9-.5-7.4 1.7 3.5zM124 55.5l.1-1.1.9-.7 1.7 4-2.7-2.2zm-1-27.9l3.1 1.6-2.8 1.1-.3-2.7zm5.2 6.3l.6-2.4 2.6 4.1-3.2-1.7zm3.6 27.1l9.4-1.6.2 6.1-9.6-4.5zm4.7-17.6l-.8-2.5 2.2 2-1.4.5zm-6.8-13.7l8.9-3.1-4.9 9.4-4-6.3zM118 22.9l2.5-.7.2 2.1-2.7-1.4zm-2.3-1.3l-7-10.1 8.2-.3 3.2 9.1-4.4 1.3zm-3-12.2l3.3-1.2.4 1.1-3.7.1zm2.6 66.3l-1.4 5.9-2.3-3.6 3.7-2.3zm25.9-8.5l-3.8 5.6-6.1-10.1 9.9 4.5zm2.2-26.4l-3.5 1.3-3-2.8 6.5 1.5zm-6-7.6l3.6-7 2.6.8-6.2 6.2zm0-15.2l2.7-.9-.2 3.2-2.5-2.3zm-33.2.1l2.8-5.7 5.9 8.5-8.7-2.8zm-2.4-11.2l4.9-3.1-.5 5.5-4.4-2.4zm4 4.2l-2.6 5.1-1.9-7.6 4.5 2.5zM91.5 7.8l-3.2-5.2 9-.3-5.8 5.5zM81.2 24.2l-2.9 6.4-1.2-9.4 4.1 3zm-4.9 15.6l.9-2 .3 2.4-1.2-.4zm5 35.9l-4.5 4.4 1.5-8.2 3 3.8zm-.2 12.5l-4.4 5.2-.1-3.5 4.5-1.7zm16.7-12.6l-3.9 6.7-2.3-10 6.2 3.3zm10.1 16.7L109 95l-6.1.2 5-2.9zm5.2-8.3l-1 1.9-.4-4.1 1.4 2.2zm22.3-7.8l-2.8 5.5-2.1-3.2 4.9-2.3zm10.1-20.4v7.1l-2.5-4.4 2.5-2.7zm-.2-1.9l-2 2.1.4-3.5 1.6 1.4zm-3.9-29.5v-.3l.5.5-.5-.2zm.1-2.6l.1-1.4 1 2.4-1.1-1zm-36.7-19L101 5.2l-.1-2.9 3.9.5zm42.7 37.7l-1.1-14c0-.2-.1-.3-.1-.4L142 15.5c0-.1-.1-.3-.3-.4L129.5 4.4c-.1-.1-.2-.1-.4-.2l-6.7-2-5.5-1.8c-.1-.1-.2-.1-.4-.1l-8.8.7-7.6-1h-.1L86.7.5h-11c-.4 0-.7.1-.8.3-.2.2-.3.5-.3.8l.6 6.6-.5 10.8v.1l1.8 14.8-2.6 5.9c0 .2-.1.4-.1.5l1.1 11.3-.7 15.2c0 .3.1.6.3.8l2 2.3-2.4 12.9-.1.2.4 6.2.2 7.2c0 .6.5 1 1.1 1h23.5l11.3-.4 12.6-1.3c.2 0 .3 0 .4-.1l6.2-2.9 5.1-2.7c.2-.1.3-.2.4-.3l7.6-9.6.2-.3 2.9-6.6v-.1l1.6-6.9.2-.1V53.3l-.2-12.8zM61.1 4.2l8.4-.9-6.9 11.2-1.5-10.3zM44.4 89.4L47 87l.2 5.4-2.8-3zm-2.7-.1l-5.6 5.2-1.6-13.1 7.2 7.9zm-14.9 5.6L32.7 82l1.6 13.3-7.5-.4zm3.9-13.2l-4.5 10-.4-6.1 4.9-3.9zm5.2-78.4l-8.7 2.8L24.3 3l11.6.3zM37.5 15l-8.7-7.4 11.7-3.8-3 11.2zm2.6 1.7l8.9-3.6-1.7 8-7.2-4.4zM29.5 47.2l12.1-5 5.5 12.3-8.4 5.9-9.2-13.2zm10.2 14.6l7.2-5.1-.8 11.6-6.4-6.5zm4.2 20.3l2.3-6.6.6 7.8-2.9-1.2zm0 5.1l-.8.7-.3-.3 1.1-.4zm1.6-2.6l-2.8 1 .7-1.9 2.1.9zm-3.9-1.7l-.9 2.5-4-4.6 4.9 2.1zm3.7-10.5l-3.2 8.9-7-2.9 10.2-6zm-14.6-4.5l4.6 1-2.1 6.5-2.5-7.5zm5.4-37.2l2.6-12.6 7.5 4.6-10.1 8zm-9.2 41.9l-.5 1.8.2-2.2.3.4zm6.4-40l-7 3.6-.4-11.4 7.4 7.8zm-.2 5.8l1.9-4.1 4.8 5.5-6.7-1.4zm-4.8 6.2l-1.8-5.8 4.1.8-2.3 5zm-1.1 2.5l-.5 1.4-.1-3.8.6 2c-.1.1-.1.2-.1.3l.1.1zm-.2 6.3l.5-1.7.2 2.3-.6-.4-.1-.2zm.3 2.5l.4.2v1.5l-.4-1.7zm.9 10.5l-1.5 1.3.1-6.3 1.4 5zm1.1-16.2l5.9 8.5-5.7-3.4-.2-5.1zm-1.5-12.9l5.2-2.6-1.6 3.4-3.6-.8zm11.4 4.1l-9.4 3.9 2.5-5.3 6.9 1.4zM27.7 69.1l-.3 1.5-.6-.6.9-.9zm1 3l.6-2.2 1.6 4.7-2.2-2.5zm8-10.5l-6.6 3.6-.4-7.9 7 4.3zm6.6-27.8l-6.5-1.5L46 25l-2.7 8.8zm-6 .6l5.5 1.3-1.2 3.6-4.3-4.9zm6.7 3.7l.6-2 1.3.3-1.9 1.7zm1.2-3.8l1.6-5.2v5.6l-1.6-.4zM37 18l-2.6 12.9-8.2-8.5L37 18zm-5.1 60.3l-5.8 4.6 2.1-8.8 3.7 4.2zm5-14.9l-1 3.7-4.1-.9 5.1-2.8zm.8 4.1l1.2-4.1 5.4 5.5-6.6-1.4zm-2.9 9.1l2.4-7.3 7.3 1.6-9.7 5.7zm8.3-35.1l3.8-3.3.1 12-3.9-8.7zM27.7 8.9l8.8 7.5-10.7 4.3 1.9-11.8zM43 90.7l3.2 3.6-8 .8 4.8-4.4zm5.8-79.3l-9.3 3.7 2.9-10.9 6.4 7.2zm3 .2l7.5-6.5 1.6 11-9.1-4.5zm8 5.8l-1.1.3-2.4-2 3.5 1.7zm-9.1-4l5.8 5-7.5 2.7 1.7-7.7zm-.5-3l-6.1-6.8 13.3.6-7.2 6.2zm8.1 9.4l2.2 1.9-7.3-.1 5.1-1.8zm3.2.5L60.1 19l1.2-.4.2 1.7zm-42.6-1.7l1.8-2.1 2 3.8-3.8-1.7zm-2.8.6L14.6 21l-.4-2.7 1.9.9zm-7.4.8l2.2 1.7-5-.3L8.7 20zm-.9-9.1l4.1 5.7-3 1.5-6.2-4.7 5.1-2.5zm-1-1.4l-4.4 2.2.8-7.4 3.6 5.2zm2.6.7l5.3-2.6-1.9 7.4-3.4-4.8zm-1-1.4L4.5 3.4l9.2 2.9-5.3 2.5zm4.5 12.3l-2.5-1.9 2.1-1 .4 2.9zM25.4 7.9L21 13.5l-2.3-4.3 1.1-1.9 5.6.6zm-7.7 3l2.1 4-2.5 3-2.9-1.3 3.3-5.7zm1.2-5.3l-2.7-.3L9 3.1h11.4l-1.5 2.5zm-2.2 3.6l-1.2 2.1.8-3 .4.9zm4.2 12.1l-4.7.4 1.5-1.8 3.2 1.4zm-.2-15.6l1.5-2.5 2.7 2.9-4.2-.4zM7.2 18.9l-4.1 1.9-.7-5.5 4.8 3.6zm18.3-8.4l-1.4 8.8-2.3-4.2 3.7-4.6zm37.8 6.7l6.9-11.4-.6 15-6.3-3.6zm3.6 4.3l-3.2.1-.3-2.2 3.5 2.1zM71.4 1L60 2.2l-18.1-.8L22.1.9H2.3c-.5 0-1 .4-1 .9L0 13.2v.2l1.1 8.9c0 .6.5.9 1 1l11.8.8h.1l9.6-.8.6 14.4.5 16.3-.2 15.9-.9 15.4.7 10.7c0 .5.4.9 1 .9l9.9.5v.1h.4l12.9-1.3c.5-.1.9-.6.9-1.1L49 84.4l-.9-14 1.1-15.7-.3-31 13.8.1h7.9c.5 0 1-.4 1-1l.9-20.7c0-.3-.1-.6-.3-.8-.2-.2-.5-.3-.8-.3z" class="a" fill="#9ec41b"/></g></svg>