<?xml version="1.0" standalone="no"?>
<!DOCTYPE svg PUBLIC "-//W3C//DTD SVG 20010904//EN"
 "http://www.w3.org/TR/2001/REC-SVG-20010904/DTD/svg10.dtd">
<svg version="1.0" xmlns="http://www.w3.org/2000/svg"
 width="842.000000pt" height="842.000000pt" viewBox="0 0 842.000000 842.000000"
 preserveAspectRatio="xMidYMid meet">
<metadata>
Created by potrace 1.11, written by Peter Selinger 2001-2013
</metadata>
<g transform="translate(0.000000,842.000000) scale(0.100000,-0.100000)"
fill="#000000" stroke="none">
<path d="M99 5890 l-23 -6 0 -553 c-1 -358 3 -555 9 -559 6 -4 147 -7 315 -8
168 -1 307 -2 310 -3 3 0 6 -501 5 -1112 0 -1103 0 -1111 20 -1118 15 -5 1145
-7 1260 -2 20 1 20 7 18 1103 -1 607 0 1110 2 1118 4 13 47 15 327 15 l323 0
1 563 1 562 -21 1 c-116 4 -2531 3 -2547 -1z"/>
<path d="M2965 5892 l-40 -3 0 -1679 0 -1680 25 -1 c139 -5 1511 0 1560 5 82
9 236 44 273 63 15 7 27 11 27 8 0 -4 12 0 28 8 15 8 50 25 77 38 145 69 308
211 392 344 27 42 105 198 108 215 0 3 8 28 17 55 24 72 44 164 56 255 8 64 8
1367 -1 1422 -3 21 -8 42 -11 47 -4 5 -8 22 -11 38 -6 44 -21 93 -44 153 -23
57 -81 178 -93 195 -5 6 -29 39 -55 75 -61 83 -149 168 -238 229 -77 53 -199
118 -235 125 -3 1 -9 4 -15 7 -10 6 -108 40 -132 46 -7 2 -21 5 -30 7 -10 3
-19 5 -20 6 -4 3 -12 5 -68 14 -46 8 -1478 15 -1570 8z"/>
<path d="M6750 5892 c-50 -4 -156 -28 -221 -51 -250 -86 -475 -274 -604 -505
-69 -125 -148 -369 -157 -484 -1 -19 -6 -36 -10 -38 -4 -3 -3 -15 2 -28 5 -13
6 -27 3 -30 -10 -10 -9 -786 1 -786 5 0 4 -6 -1 -12 -9 -13 -9 -288 1 -368 3
-25 10 -70 16 -100 6 -30 13 -66 16 -80 11 -58 58 -191 96 -270 108 -225 287
-407 508 -515 109 -54 209 -87 304 -101 36 -5 1408 -9 1616 -5 l35 1 0 563 0
562 -650 0 -650 0 0 558 c0 365 3 557 10 558 5 1 291 3 635 4 344 1 632 3 640
4 13 1 15 70 15 561 l0 560 -30 1 c-91 2 -1546 4 -1575 1z"/>
</g>
</svg>
